<svg width="52" height="52" viewBox="0 0 52 52" fill="none" xmlns="http://www.w3.org/2000/svg">
<path fill-rule="evenodd" clip-rule="evenodd" d="M23.0396 16.4794C24.3867 14.6643 24.8697 12.7512 23.3462 11.0626C19.9274 6.27916 17.6281 3.32108 16.1859 1.89654C13.444 -0.811688 8.9336 -0.445357 6.55895 1.89423C5.2835 3.15085 4.85171 3.58237 3.54211 4.91242C-3.75258 12.2103 0.696096 27.6377 12.5223 39.4744C24.3458 51.3083 39.7734 55.7589 47.0834 48.4456C48.2918 47.2807 49.315 46.2571 50.122 45.4043C52.4491 42.9449 52.8024 38.6339 50.1067 35.8332C48.7246 34.3973 45.9035 32.2093 40.9183 28.6437C39.3915 27.2785 37.5811 27.5744 35.9214 28.6632C35.123 29.1869 34.542 29.7167 33.4449 30.8148L31.4527 32.8079C31.1903 33.0704 27.6273 31.2862 24.1685 27.8245C20.708 24.3608 18.9248 20.798 19.186 20.5369L21.1796 18.5424C21.5277 18.194 21.6941 18.0253 21.9075 17.801C22.3521 17.3338 22.7203 16.9098 23.0396 16.4794ZM35.1276 36.4845L37.1202 34.491C37.724 33.8866 38.1153 33.5151 38.4337 33.2589C42.8008 36.3947 45.33 38.3664 46.363 39.4397C46.9833 40.0841 46.8869 41.26 46.3477 41.8298C45.6016 42.6184 44.6321 43.5883 43.4424 44.7357C38.7155 49.4641 26.262 45.8715 16.198 35.7986C6.13087 25.7225 2.53959 13.2685 7.2308 8.57513C8.53513 7.25054 8.94838 6.83755 10.2056 5.59887C10.677 5.13444 11.961 5.03015 12.5345 5.59656C13.6449 6.69332 15.7046 9.33036 18.7345 13.5506C18.5777 13.7453 18.3818 13.9654 18.1434 14.2159C17.9684 14.3998 17.8226 14.5476 17.5039 14.8666L15.5122 16.8591C12.124 20.2467 15.0095 26.0122 20.4928 31.5003C25.9723 36.9846 31.7406 39.873 35.1276 36.4845ZM30.3157 0.183066C41.5564 1.54543 50.4693 10.4575 51.8318 21.6969L46.6957 22.5529C45.704 13.4996 38.5139 6.31028 29.4597 5.31868L30.3157 0.183066ZM28.603 10.4587C35.4709 11.0729 40.9408 16.5423 41.5551 23.4095L36.4025 24.2682C36.1838 19.5864 32.4265 15.8295 27.7442 15.6108L28.603 10.4587Z" fill="#00AEFF"/>
</svg>
