<svg width="34" height="34" viewBox="0 0 34 34" fill="none" xmlns="http://www.w3.org/2000/svg">
<mask id="path-1-outside-1" maskUnits="userSpaceOnUse" x="0" y="0" width="34" height="34" fill="black">
<rect fill="white" width="34" height="34"/>
<path d="M32.3438 18H27.5625V4.1875C27.5625 3.34212 27.2267 2.53137 26.6289 1.9336C26.0311 1.33582 25.2204 1 24.375 1H13.2188C12.5143 1 11.8386 1.27985 11.3405 1.778C10.8424 2.27614 10.5625 2.95177 10.5625 3.65625V7.42813C9.9633 7.55216 9.42503 7.8786 9.03808 8.35261C8.65113 8.82663 8.43907 9.41935 8.4375 10.0312V13.75H1.53125C1.39035 13.75 1.25523 13.806 1.1556 13.9056C1.05597 14.0052 1 14.1404 1 14.2812V29.1562C1 29.2971 1.05597 29.4323 1.1556 29.5319C1.25523 29.6315 1.39035 29.6875 1.53125 29.6875H8.4375V30.2188C8.4375 30.9232 8.71735 31.5989 9.2155 32.097C9.71364 32.5951 10.3893 32.875 11.0938 32.875H21.7188C22.4232 32.875 23.0989 32.5951 23.597 32.097C24.0951 31.5989 24.375 30.9232 24.375 30.2188V23.3125H29.6875C30.5329 23.3125 31.3436 22.9767 31.9414 22.3789C32.5392 21.7811 32.875 20.9704 32.875 20.125V18.5312C32.875 18.3904 32.819 18.2552 32.7194 18.1556C32.6198 18.056 32.4846 18 32.3438 18ZM4.1875 28.625H2.0625V14.8125H4.1875V28.625ZM6.3125 28.625H5.25V14.8125H6.3125V28.625ZM8.4375 28.625H7.375V14.8125H8.4375V28.625ZM11.625 3.65625C11.6263 3.23395 11.7946 2.82931 12.0932 2.53069C12.3918 2.23208 12.7964 2.06376 13.2188 2.0625H22.0003C21.4759 2.64596 21.1864 3.40303 21.1875 4.1875V11.625H11.625V3.65625ZM23.3125 30.2188C23.3112 30.6411 23.1429 31.0457 22.8443 31.3443C22.5457 31.6429 22.1411 31.8112 21.7188 31.8125H11.0938C10.6714 31.8112 10.2668 31.6429 9.96819 31.3443C9.66958 31.0457 9.50126 30.6411 9.5 30.2188V10.0312C9.50169 9.70262 9.6046 9.38249 9.79471 9.11443C9.98483 8.84637 10.2529 8.64339 10.5625 8.53312V12.1562C10.5625 12.2971 10.6185 12.4323 10.7181 12.5319C10.8177 12.6315 10.9529 12.6875 11.0938 12.6875H21.7188C21.8596 12.6875 21.9948 12.6315 22.0944 12.5319C22.194 12.4323 22.25 12.2971 22.25 12.1562V8.53312C22.5596 8.64339 22.8277 8.84637 23.0178 9.11443C23.2079 9.38249 23.3108 9.70262 23.3125 10.0312V30.2188ZM24.375 22.25V10.0312C24.3734 9.41935 24.1614 8.82663 23.7744 8.35261C23.3875 7.8786 22.8492 7.55216 22.25 7.42813V4.1875C22.25 3.62391 22.4739 3.08341 22.8724 2.6849C23.2709 2.28638 23.8114 2.0625 24.375 2.0625C24.9386 2.0625 25.4791 2.28638 25.8776 2.6849C26.2761 3.08341 26.5 3.62391 26.5 4.1875V20.125C26.5007 20.9101 26.7922 21.6671 27.3181 22.25H24.375ZM31.8125 20.125C31.8125 20.6886 31.5886 21.2291 31.1901 21.6276C30.7916 22.0261 30.2511 22.25 29.6875 22.25C29.1239 22.25 28.5834 22.0261 28.1849 21.6276C27.7864 21.2291 27.5625 20.6886 27.5625 20.125V19.0625H31.8125V20.125Z"/>
<path d="M13.2188 19.0625H11.0938C10.9529 19.0625 10.8177 19.1185 10.7181 19.2181C10.6185 19.3177 10.5625 19.4529 10.5625 19.5938V21.7188C10.5625 21.8596 10.6185 21.9948 10.7181 22.0944C10.8177 22.194 10.9529 22.25 11.0938 22.25H13.2188C13.3596 22.25 13.4948 22.194 13.5944 22.0944C13.694 21.9948 13.75 21.8596 13.75 21.7188V19.5938C13.75 19.4529 13.694 19.3177 13.5944 19.2181C13.4948 19.1185 13.3596 19.0625 13.2188 19.0625ZM12.6875 21.1875H11.625V20.125H12.6875V21.1875Z"/>
<path d="M17.4688 19.0625H15.3438C15.2029 19.0625 15.0677 19.1185 14.9681 19.2181C14.8685 19.3177 14.8125 19.4529 14.8125 19.5938V21.7188C14.8125 21.8596 14.8685 21.9948 14.9681 22.0944C15.0677 22.194 15.2029 22.25 15.3438 22.25H17.4688C17.6096 22.25 17.7448 22.194 17.8444 22.0944C17.944 21.9948 18 21.8596 18 21.7188V19.5938C18 19.4529 17.944 19.3177 17.8444 19.2181C17.7448 19.1185 17.6096 19.0625 17.4688 19.0625ZM16.9375 21.1875H15.875V20.125H16.9375V21.1875Z"/>
<path d="M21.7188 19.0625H19.5938C19.4529 19.0625 19.3177 19.1185 19.2181 19.2181C19.1185 19.3177 19.0625 19.4529 19.0625 19.5938V21.7188C19.0625 21.8596 19.1185 21.9948 19.2181 22.0944C19.3177 22.194 19.4529 22.25 19.5938 22.25H21.7188C21.8596 22.25 21.9948 22.194 22.0944 22.0944C22.194 21.9948 22.25 21.8596 22.25 21.7188V19.5938C22.25 19.4529 22.194 19.3177 22.0944 19.2181C21.9948 19.1185 21.8596 19.0625 21.7188 19.0625ZM21.1875 21.1875H20.125V20.125H21.1875V21.1875Z"/>
<path d="M13.2188 23.3125H11.0938C10.9529 23.3125 10.8177 23.3685 10.7181 23.4681C10.6185 23.5677 10.5625 23.7029 10.5625 23.8438V25.9688C10.5625 26.1096 10.6185 26.2448 10.7181 26.3444C10.8177 26.444 10.9529 26.5 11.0938 26.5H13.2188C13.3596 26.5 13.4948 26.444 13.5944 26.3444C13.694 26.2448 13.75 26.1096 13.75 25.9688V23.8438C13.75 23.7029 13.694 23.5677 13.5944 23.4681C13.4948 23.3685 13.3596 23.3125 13.2188 23.3125ZM12.6875 25.4375H11.625V24.375H12.6875V25.4375Z"/>
<path d="M17.4688 23.3125H15.3438C15.2029 23.3125 15.0677 23.3685 14.9681 23.4681C14.8685 23.5677 14.8125 23.7029 14.8125 23.8438V25.9688C14.8125 26.1096 14.8685 26.2448 14.9681 26.3444C15.0677 26.444 15.2029 26.5 15.3438 26.5H17.4688C17.6096 26.5 17.7448 26.444 17.8444 26.3444C17.944 26.2448 18 26.1096 18 25.9688V23.8438C18 23.7029 17.944 23.5677 17.8444 23.4681C17.7448 23.3685 17.6096 23.3125 17.4688 23.3125ZM16.9375 25.4375H15.875V24.375H16.9375V25.4375Z"/>
<path d="M21.7188 23.3125H19.5938C19.4529 23.3125 19.3177 23.3685 19.2181 23.4681C19.1185 23.5677 19.0625 23.7029 19.0625 23.8438V25.9688C19.0625 26.1096 19.1185 26.2448 19.2181 26.3444C19.3177 26.444 19.4529 26.5 19.5938 26.5H21.7188C21.8596 26.5 21.9948 26.444 22.0944 26.3444C22.194 26.2448 22.25 26.1096 22.25 25.9688V23.8438C22.25 23.7029 22.194 23.5677 22.0944 23.4681C21.9948 23.3685 21.8596 23.3125 21.7188 23.3125ZM21.1875 25.4375H20.125V24.375H21.1875V25.4375Z"/>
<path d="M13.2188 27.5625H11.0938C10.9529 27.5625 10.8177 27.6185 10.7181 27.7181C10.6185 27.8177 10.5625 27.9529 10.5625 28.0938V30.2188C10.5625 30.3596 10.6185 30.4948 10.7181 30.5944C10.8177 30.694 10.9529 30.75 11.0938 30.75H13.2188C13.3596 30.75 13.4948 30.694 13.5944 30.5944C13.694 30.4948 13.75 30.3596 13.75 30.2188V28.0938C13.75 27.9529 13.694 27.8177 13.5944 27.7181C13.4948 27.6185 13.3596 27.5625 13.2188 27.5625ZM12.6875 29.6875H11.625V28.625H12.6875V29.6875Z"/>
<path d="M17.4688 27.5625H15.3438C15.2029 27.5625 15.0677 27.6185 14.9681 27.7181C14.8685 27.8177 14.8125 27.9529 14.8125 28.0938V30.2188C14.8125 30.3596 14.8685 30.4948 14.9681 30.5944C15.0677 30.694 15.2029 30.75 15.3438 30.75H17.4688C17.6096 30.75 17.7448 30.694 17.8444 30.5944C17.944 30.4948 18 30.3596 18 30.2188V28.0938C18 27.9529 17.944 27.8177 17.8444 27.7181C17.7448 27.6185 17.6096 27.5625 17.4688 27.5625ZM16.9375 29.6875H15.875V28.625H16.9375V29.6875Z"/>
<path d="M21.7188 27.5625H19.5938C19.4529 27.5625 19.3177 27.6185 19.2181 27.7181C19.1185 27.8177 19.0625 27.9529 19.0625 28.0938V30.2188C19.0625 30.3596 19.1185 30.4948 19.2181 30.5944C19.3177 30.694 19.4529 30.75 19.5938 30.75H21.7188C21.8596 30.75 21.9948 30.694 22.0944 30.5944C22.194 30.4948 22.25 30.3596 22.25 30.2188V28.0938C22.25 27.9529 22.194 27.8177 22.0944 27.7181C21.9948 27.6185 21.8596 27.5625 21.7188 27.5625ZM21.1875 29.6875H20.125V28.625H21.1875V29.6875Z"/>
<path d="M21.7188 14.8125H11.0938C10.9529 14.8125 10.8177 14.8685 10.7181 14.9681C10.6185 15.0677 10.5625 15.2029 10.5625 15.3438V17.4688C10.5625 17.6096 10.6185 17.7448 10.7181 17.8444C10.8177 17.944 10.9529 18 11.0938 18H21.7188C21.8596 18 21.9948 17.944 22.0944 17.8444C22.194 17.7448 22.25 17.6096 22.25 17.4688V15.3438C22.25 15.2029 22.194 15.0677 22.0944 14.9681C21.9948 14.8685 21.8596 14.8125 21.7188 14.8125ZM21.1875 16.9375H11.625V15.875H21.1875V16.9375Z"/>
<path d="M18 7.90625C17.9983 8.23488 17.8954 8.55501 17.7053 8.82307C17.5152 9.09113 17.2471 9.29411 16.9375 9.40438V10.0312H15.875V9.40438C15.5654 9.29411 15.2973 9.09113 15.1072 8.82307C14.9171 8.55501 14.8142 8.23488 14.8125 7.90625H15.875C15.875 8.01132 15.9062 8.11403 15.9645 8.2014C16.0229 8.28876 16.1059 8.35685 16.2029 8.39706C16.3 8.43727 16.4068 8.44779 16.5099 8.42729C16.6129 8.40679 16.7076 8.3562 16.7819 8.2819C16.8562 8.2076 16.9068 8.11294 16.9273 8.00989C16.9478 7.90684 16.9373 7.80002 16.8971 7.70295C16.8569 7.60588 16.7888 7.52291 16.7014 7.46453C16.614 7.40616 16.5113 7.375 16.4062 7.375C16.0325 7.3721 15.6716 7.23793 15.3868 6.99594C15.1019 6.75396 14.9112 6.41955 14.8479 6.05118C14.7846 5.68281 14.8528 5.30392 15.0405 4.98073C15.2283 4.65754 15.5236 4.41061 15.875 4.28313V3.65625H16.9375V4.28313C17.2471 4.39339 17.5152 4.59637 17.7053 4.86443C17.8954 5.13249 17.9983 5.45262 18 5.78125H16.9375C16.9375 5.67618 16.9063 5.57347 16.848 5.4861C16.7896 5.39874 16.7066 5.33065 16.6096 5.29044C16.5125 5.25023 16.4057 5.23971 16.3026 5.26021C16.1996 5.28071 16.1049 5.3313 16.0306 5.4056C15.9563 5.4799 15.9057 5.57456 15.8852 5.67761C15.8647 5.78066 15.8752 5.88748 15.9154 5.98455C15.9556 6.08162 16.0237 6.16459 16.1111 6.22297C16.1985 6.28134 16.3012 6.3125 16.4062 6.3125C16.8286 6.31376 17.2332 6.48208 17.5318 6.78069C17.8304 7.0793 17.9987 7.48395 18 7.90625Z"/>
<path d="M1 1H2.0625V2.0625H1V1Z"/>
<path d="M3.125 1H7.375V2.0625H3.125V1Z"/>
<path d="M1 4.1875H2.0625V5.25H1V4.1875Z"/>
<path d="M3.125 4.1875H7.375V5.25H3.125V4.1875Z"/>
<path d="M1 7.375H2.0625V8.4375H1V7.375Z"/>
<path d="M3.125 7.375H7.375V8.4375H3.125V7.375Z"/>
<path d="M31.8125 25.4375H32.875V26.5H31.8125V25.4375Z"/>
<path d="M26.5 25.4375H30.75V26.5H26.5V25.4375Z"/>
<path d="M31.8125 28.625H32.875V29.6875H31.8125V28.625Z"/>
<path d="M26.5 28.625H30.75V29.6875H26.5V28.625Z"/>
<path d="M31.8125 31.8125H32.875V32.875H31.8125V31.8125Z"/>
<path d="M26.5 31.8125H30.75V32.875H26.5V31.8125Z"/>
</mask>
<path d="M32.3438 18H27.5625V4.1875C27.5625 3.34212 27.2267 2.53137 26.6289 1.9336C26.0311 1.33582 25.2204 1 24.375 1H13.2188C12.5143 1 11.8386 1.27985 11.3405 1.778C10.8424 2.27614 10.5625 2.95177 10.5625 3.65625V7.42813C9.9633 7.55216 9.42503 7.8786 9.03808 8.35261C8.65113 8.82663 8.43907 9.41935 8.4375 10.0312V13.75H1.53125C1.39035 13.75 1.25523 13.806 1.1556 13.9056C1.05597 14.0052 1 14.1404 1 14.2812V29.1562C1 29.2971 1.05597 29.4323 1.1556 29.5319C1.25523 29.6315 1.39035 29.6875 1.53125 29.6875H8.4375V30.2188C8.4375 30.9232 8.71735 31.5989 9.2155 32.097C9.71364 32.5951 10.3893 32.875 11.0938 32.875H21.7188C22.4232 32.875 23.0989 32.5951 23.597 32.097C24.0951 31.5989 24.375 30.9232 24.375 30.2188V23.3125H29.6875C30.5329 23.3125 31.3436 22.9767 31.9414 22.3789C32.5392 21.7811 32.875 20.9704 32.875 20.125V18.5312C32.875 18.3904 32.819 18.2552 32.7194 18.1556C32.6198 18.056 32.4846 18 32.3438 18ZM4.1875 28.625H2.0625V14.8125H4.1875V28.625ZM6.3125 28.625H5.25V14.8125H6.3125V28.625ZM8.4375 28.625H7.375V14.8125H8.4375V28.625ZM11.625 3.65625C11.6263 3.23395 11.7946 2.82931 12.0932 2.53069C12.3918 2.23208 12.7964 2.06376 13.2188 2.0625H22.0003C21.4759 2.64596 21.1864 3.40303 21.1875 4.1875V11.625H11.625V3.65625ZM23.3125 30.2188C23.3112 30.6411 23.1429 31.0457 22.8443 31.3443C22.5457 31.6429 22.1411 31.8112 21.7188 31.8125H11.0938C10.6714 31.8112 10.2668 31.6429 9.96819 31.3443C9.66958 31.0457 9.50126 30.6411 9.5 30.2188V10.0312C9.50169 9.70262 9.6046 9.38249 9.79471 9.11443C9.98483 8.84637 10.2529 8.64339 10.5625 8.53312V12.1562C10.5625 12.2971 10.6185 12.4323 10.7181 12.5319C10.8177 12.6315 10.9529 12.6875 11.0938 12.6875H21.7188C21.8596 12.6875 21.9948 12.6315 22.0944 12.5319C22.194 12.4323 22.25 12.2971 22.25 12.1562V8.53312C22.5596 8.64339 22.8277 8.84637 23.0178 9.11443C23.2079 9.38249 23.3108 9.70262 23.3125 10.0312V30.2188ZM24.375 22.25V10.0312C24.3734 9.41935 24.1614 8.82663 23.7744 8.35261C23.3875 7.8786 22.8492 7.55216 22.25 7.42813V4.1875C22.25 3.62391 22.4739 3.08341 22.8724 2.6849C23.2709 2.28638 23.8114 2.0625 24.375 2.0625C24.9386 2.0625 25.4791 2.28638 25.8776 2.6849C26.2761 3.08341 26.5 3.62391 26.5 4.1875V20.125C26.5007 20.9101 26.7922 21.6671 27.3181 22.25H24.375ZM31.8125 20.125C31.8125 20.6886 31.5886 21.2291 31.1901 21.6276C30.7916 22.0261 30.2511 22.25 29.6875 22.25C29.1239 22.25 28.5834 22.0261 28.1849 21.6276C27.7864 21.2291 27.5625 20.6886 27.5625 20.125V19.0625H31.8125V20.125Z" fill="#00AEFF"/>
<path d="M13.2188 19.0625H11.0938C10.9529 19.0625 10.8177 19.1185 10.7181 19.2181C10.6185 19.3177 10.5625 19.4529 10.5625 19.5938V21.7188C10.5625 21.8596 10.6185 21.9948 10.7181 22.0944C10.8177 22.194 10.9529 22.25 11.0938 22.25H13.2188C13.3596 22.25 13.4948 22.194 13.5944 22.0944C13.694 21.9948 13.75 21.8596 13.75 21.7188V19.5938C13.75 19.4529 13.694 19.3177 13.5944 19.2181C13.4948 19.1185 13.3596 19.0625 13.2188 19.0625ZM12.6875 21.1875H11.625V20.125H12.6875V21.1875Z" fill="#00AEFF"/>
<path d="M17.4688 19.0625H15.3438C15.2029 19.0625 15.0677 19.1185 14.9681 19.2181C14.8685 19.3177 14.8125 19.4529 14.8125 19.5938V21.7188C14.8125 21.8596 14.8685 21.9948 14.9681 22.0944C15.0677 22.194 15.2029 22.25 15.3438 22.25H17.4688C17.6096 22.25 17.7448 22.194 17.8444 22.0944C17.944 21.9948 18 21.8596 18 21.7188V19.5938C18 19.4529 17.944 19.3177 17.8444 19.2181C17.7448 19.1185 17.6096 19.0625 17.4688 19.0625ZM16.9375 21.1875H15.875V20.125H16.9375V21.1875Z" fill="#00AEFF"/>
<path d="M21.7188 19.0625H19.5938C19.4529 19.0625 19.3177 19.1185 19.2181 19.2181C19.1185 19.3177 19.0625 19.4529 19.0625 19.5938V21.7188C19.0625 21.8596 19.1185 21.9948 19.2181 22.0944C19.3177 22.194 19.4529 22.25 19.5938 22.25H21.7188C21.8596 22.25 21.9948 22.194 22.0944 22.0944C22.194 21.9948 22.25 21.8596 22.25 21.7188V19.5938C22.25 19.4529 22.194 19.3177 22.0944 19.2181C21.9948 19.1185 21.8596 19.0625 21.7188 19.0625ZM21.1875 21.1875H20.125V20.125H21.1875V21.1875Z" fill="#00AEFF"/>
<path d="M13.2188 23.3125H11.0938C10.9529 23.3125 10.8177 23.3685 10.7181 23.4681C10.6185 23.5677 10.5625 23.7029 10.5625 23.8438V25.9688C10.5625 26.1096 10.6185 26.2448 10.7181 26.3444C10.8177 26.444 10.9529 26.5 11.0938 26.5H13.2188C13.3596 26.5 13.4948 26.444 13.5944 26.3444C13.694 26.2448 13.75 26.1096 13.75 25.9688V23.8438C13.75 23.7029 13.694 23.5677 13.5944 23.4681C13.4948 23.3685 13.3596 23.3125 13.2188 23.3125ZM12.6875 25.4375H11.625V24.375H12.6875V25.4375Z" fill="#00AEFF"/>
<path d="M17.4688 23.3125H15.3438C15.2029 23.3125 15.0677 23.3685 14.9681 23.4681C14.8685 23.5677 14.8125 23.7029 14.8125 23.8438V25.9688C14.8125 26.1096 14.8685 26.2448 14.9681 26.3444C15.0677 26.444 15.2029 26.5 15.3438 26.5H17.4688C17.6096 26.5 17.7448 26.444 17.8444 26.3444C17.944 26.2448 18 26.1096 18 25.9688V23.8438C18 23.7029 17.944 23.5677 17.8444 23.4681C17.7448 23.3685 17.6096 23.3125 17.4688 23.3125ZM16.9375 25.4375H15.875V24.375H16.9375V25.4375Z" fill="#00AEFF"/>
<path d="M21.7188 23.3125H19.5938C19.4529 23.3125 19.3177 23.3685 19.2181 23.4681C19.1185 23.5677 19.0625 23.7029 19.0625 23.8438V25.9688C19.0625 26.1096 19.1185 26.2448 19.2181 26.3444C19.3177 26.444 19.4529 26.5 19.5938 26.5H21.7188C21.8596 26.5 21.9948 26.444 22.0944 26.3444C22.194 26.2448 22.25 26.1096 22.25 25.9688V23.8438C22.25 23.7029 22.194 23.5677 22.0944 23.4681C21.9948 23.3685 21.8596 23.3125 21.7188 23.3125ZM21.1875 25.4375H20.125V24.375H21.1875V25.4375Z" fill="#00AEFF"/>
<path d="M13.2188 27.5625H11.0938C10.9529 27.5625 10.8177 27.6185 10.7181 27.7181C10.6185 27.8177 10.5625 27.9529 10.5625 28.0938V30.2188C10.5625 30.3596 10.6185 30.4948 10.7181 30.5944C10.8177 30.694 10.9529 30.75 11.0938 30.75H13.2188C13.3596 30.75 13.4948 30.694 13.5944 30.5944C13.694 30.4948 13.75 30.3596 13.75 30.2188V28.0938C13.75 27.9529 13.694 27.8177 13.5944 27.7181C13.4948 27.6185 13.3596 27.5625 13.2188 27.5625ZM12.6875 29.6875H11.625V28.625H12.6875V29.6875Z" fill="#00AEFF"/>
<path d="M17.4688 27.5625H15.3438C15.2029 27.5625 15.0677 27.6185 14.9681 27.7181C14.8685 27.8177 14.8125 27.9529 14.8125 28.0938V30.2188C14.8125 30.3596 14.8685 30.4948 14.9681 30.5944C15.0677 30.694 15.2029 30.75 15.3438 30.75H17.4688C17.6096 30.75 17.7448 30.694 17.8444 30.5944C17.944 30.4948 18 30.3596 18 30.2188V28.0938C18 27.9529 17.944 27.8177 17.8444 27.7181C17.7448 27.6185 17.6096 27.5625 17.4688 27.5625ZM16.9375 29.6875H15.875V28.625H16.9375V29.6875Z" fill="#00AEFF"/>
<path d="M21.7188 27.5625H19.5938C19.4529 27.5625 19.3177 27.6185 19.2181 27.7181C19.1185 27.8177 19.0625 27.9529 19.0625 28.0938V30.2188C19.0625 30.3596 19.1185 30.4948 19.2181 30.5944C19.3177 30.694 19.4529 30.75 19.5938 30.75H21.7188C21.8596 30.75 21.9948 30.694 22.0944 30.5944C22.194 30.4948 22.25 30.3596 22.25 30.2188V28.0938C22.25 27.9529 22.194 27.8177 22.0944 27.7181C21.9948 27.6185 21.8596 27.5625 21.7188 27.5625ZM21.1875 29.6875H20.125V28.625H21.1875V29.6875Z" fill="#00AEFF"/>
<path d="M21.7188 14.8125H11.0938C10.9529 14.8125 10.8177 14.8685 10.7181 14.9681C10.6185 15.0677 10.5625 15.2029 10.5625 15.3438V17.4688C10.5625 17.6096 10.6185 17.7448 10.7181 17.8444C10.8177 17.944 10.9529 18 11.0938 18H21.7188C21.8596 18 21.9948 17.944 22.0944 17.8444C22.194 17.7448 22.25 17.6096 22.25 17.4688V15.3438C22.25 15.2029 22.194 15.0677 22.0944 14.9681C21.9948 14.8685 21.8596 14.8125 21.7188 14.8125ZM21.1875 16.9375H11.625V15.875H21.1875V16.9375Z" fill="#00AEFF"/>
<path d="M18 7.90625C17.9983 8.23488 17.8954 8.55501 17.7053 8.82307C17.5152 9.09113 17.2471 9.29411 16.9375 9.40438V10.0312H15.875V9.40438C15.5654 9.29411 15.2973 9.09113 15.1072 8.82307C14.9171 8.55501 14.8142 8.23488 14.8125 7.90625H15.875C15.875 8.01132 15.9062 8.11403 15.9645 8.2014C16.0229 8.28876 16.1059 8.35685 16.2029 8.39706C16.3 8.43727 16.4068 8.44779 16.5099 8.42729C16.6129 8.40679 16.7076 8.3562 16.7819 8.2819C16.8562 8.2076 16.9068 8.11294 16.9273 8.00989C16.9478 7.90684 16.9373 7.80002 16.8971 7.70295C16.8569 7.60588 16.7888 7.52291 16.7014 7.46453C16.614 7.40616 16.5113 7.375 16.4062 7.375C16.0325 7.3721 15.6716 7.23793 15.3868 6.99594C15.1019 6.75396 14.9112 6.41955 14.8479 6.05118C14.7846 5.68281 14.8528 5.30392 15.0405 4.98073C15.2283 4.65754 15.5236 4.41061 15.875 4.28313V3.65625H16.9375V4.28313C17.2471 4.39339 17.5152 4.59637 17.7053 4.86443C17.8954 5.13249 17.9983 5.45262 18 5.78125H16.9375C16.9375 5.67618 16.9063 5.57347 16.848 5.4861C16.7896 5.39874 16.7066 5.33065 16.6096 5.29044C16.5125 5.25023 16.4057 5.23971 16.3026 5.26021C16.1996 5.28071 16.1049 5.3313 16.0306 5.4056C15.9563 5.4799 15.9057 5.57456 15.8852 5.67761C15.8647 5.78066 15.8752 5.88748 15.9154 5.98455C15.9556 6.08162 16.0237 6.16459 16.1111 6.22297C16.1985 6.28134 16.3012 6.3125 16.4062 6.3125C16.8286 6.31376 17.2332 6.48208 17.5318 6.78069C17.8304 7.0793 17.9987 7.48395 18 7.90625Z" fill="#00AEFF"/>
<path d="M1 1H2.0625V2.0625H1V1Z" fill="#00AEFF"/>
<path d="M3.125 1H7.375V2.0625H3.125V1Z" fill="#00AEFF"/>
<path d="M1 4.1875H2.0625V5.25H1V4.1875Z" fill="#00AEFF"/>
<path d="M3.125 4.1875H7.375V5.25H3.125V4.1875Z" fill="#00AEFF"/>
<path d="M1 7.375H2.0625V8.4375H1V7.375Z" fill="#00AEFF"/>
<path d="M3.125 7.375H7.375V8.4375H3.125V7.375Z" fill="#00AEFF"/>
<path d="M31.8125 25.4375H32.875V26.5H31.8125V25.4375Z" fill="#00AEFF"/>
<path d="M26.5 25.4375H30.75V26.5H26.5V25.4375Z" fill="#00AEFF"/>
<path d="M31.8125 28.625H32.875V29.6875H31.8125V28.625Z" fill="#00AEFF"/>
<path d="M26.5 28.625H30.75V29.6875H26.5V28.625Z" fill="#00AEFF"/>
<path d="M31.8125 31.8125H32.875V32.875H31.8125V31.8125Z" fill="#00AEFF"/>
<path d="M26.5 31.8125H30.75V32.875H26.5V31.8125Z" fill="#00AEFF"/>
<path d="M32.3438 18H27.5625V4.1875C27.5625 3.34212 27.2267 2.53137 26.6289 1.9336C26.0311 1.33582 25.2204 1 24.375 1H13.2188C12.5143 1 11.8386 1.27985 11.3405 1.778C10.8424 2.27614 10.5625 2.95177 10.5625 3.65625V7.42813C9.9633 7.55216 9.42503 7.8786 9.03808 8.35261C8.65113 8.82663 8.43907 9.41935 8.4375 10.0312V13.75H1.53125C1.39035 13.75 1.25523 13.806 1.1556 13.9056C1.05597 14.0052 1 14.1404 1 14.2812V29.1562C1 29.2971 1.05597 29.4323 1.1556 29.5319C1.25523 29.6315 1.39035 29.6875 1.53125 29.6875H8.4375V30.2188C8.4375 30.9232 8.71735 31.5989 9.2155 32.097C9.71364 32.5951 10.3893 32.875 11.0938 32.875H21.7188C22.4232 32.875 23.0989 32.5951 23.597 32.097C24.0951 31.5989 24.375 30.9232 24.375 30.2188V23.3125H29.6875C30.5329 23.3125 31.3436 22.9767 31.9414 22.3789C32.5392 21.7811 32.875 20.9704 32.875 20.125V18.5312C32.875 18.3904 32.819 18.2552 32.7194 18.1556C32.6198 18.056 32.4846 18 32.3438 18ZM4.1875 28.625H2.0625V14.8125H4.1875V28.625ZM6.3125 28.625H5.25V14.8125H6.3125V28.625ZM8.4375 28.625H7.375V14.8125H8.4375V28.625ZM11.625 3.65625C11.6263 3.23395 11.7946 2.82931 12.0932 2.53069C12.3918 2.23208 12.7964 2.06376 13.2188 2.0625H22.0003C21.4759 2.64596 21.1864 3.40303 21.1875 4.1875V11.625H11.625V3.65625ZM23.3125 30.2188C23.3112 30.6411 23.1429 31.0457 22.8443 31.3443C22.5457 31.6429 22.1411 31.8112 21.7188 31.8125H11.0938C10.6714 31.8112 10.2668 31.6429 9.96819 31.3443C9.66958 31.0457 9.50126 30.6411 9.5 30.2188V10.0312C9.50169 9.70262 9.6046 9.38249 9.79471 9.11443C9.98483 8.84637 10.2529 8.64339 10.5625 8.53312V12.1562C10.5625 12.2971 10.6185 12.4323 10.7181 12.5319C10.8177 12.6315 10.9529 12.6875 11.0938 12.6875H21.7188C21.8596 12.6875 21.9948 12.6315 22.0944 12.5319C22.194 12.4323 22.25 12.2971 22.25 12.1562V8.53312C22.5596 8.64339 22.8277 8.84637 23.0178 9.11443C23.2079 9.38249 23.3108 9.70262 23.3125 10.0312V30.2188ZM24.375 22.25V10.0312C24.3734 9.41935 24.1614 8.82663 23.7744 8.35261C23.3875 7.8786 22.8492 7.55216 22.25 7.42813V4.1875C22.25 3.62391 22.4739 3.08341 22.8724 2.6849C23.2709 2.28638 23.8114 2.0625 24.375 2.0625C24.9386 2.0625 25.4791 2.28638 25.8776 2.6849C26.2761 3.08341 26.5 3.62391 26.5 4.1875V20.125C26.5007 20.9101 26.7922 21.6671 27.3181 22.25H24.375ZM31.8125 20.125C31.8125 20.6886 31.5886 21.2291 31.1901 21.6276C30.7916 22.0261 30.2511 22.25 29.6875 22.25C29.1239 22.25 28.5834 22.0261 28.1849 21.6276C27.7864 21.2291 27.5625 20.6886 27.5625 20.125V19.0625H31.8125V20.125Z" stroke="#00AEFF" stroke-width="0.6" mask="url(#path-1-outside-1)"/>
<path d="M13.2188 19.0625H11.0938C10.9529 19.0625 10.8177 19.1185 10.7181 19.2181C10.6185 19.3177 10.5625 19.4529 10.5625 19.5938V21.7188C10.5625 21.8596 10.6185 21.9948 10.7181 22.0944C10.8177 22.194 10.9529 22.25 11.0938 22.25H13.2188C13.3596 22.25 13.4948 22.194 13.5944 22.0944C13.694 21.9948 13.75 21.8596 13.75 21.7188V19.5938C13.75 19.4529 13.694 19.3177 13.5944 19.2181C13.4948 19.1185 13.3596 19.0625 13.2188 19.0625ZM12.6875 21.1875H11.625V20.125H12.6875V21.1875Z" stroke="#00AEFF" stroke-width="0.6" mask="url(#path-1-outside-1)"/>
<path d="M17.4688 19.0625H15.3438C15.2029 19.0625 15.0677 19.1185 14.9681 19.2181C14.8685 19.3177 14.8125 19.4529 14.8125 19.5938V21.7188C14.8125 21.8596 14.8685 21.9948 14.9681 22.0944C15.0677 22.194 15.2029 22.25 15.3438 22.25H17.4688C17.6096 22.25 17.7448 22.194 17.8444 22.0944C17.944 21.9948 18 21.8596 18 21.7188V19.5938C18 19.4529 17.944 19.3177 17.8444 19.2181C17.7448 19.1185 17.6096 19.0625 17.4688 19.0625ZM16.9375 21.1875H15.875V20.125H16.9375V21.1875Z" stroke="#00AEFF" stroke-width="0.6" mask="url(#path-1-outside-1)"/>
<path d="M21.7188 19.0625H19.5938C19.4529 19.0625 19.3177 19.1185 19.2181 19.2181C19.1185 19.3177 19.0625 19.4529 19.0625 19.5938V21.7188C19.0625 21.8596 19.1185 21.9948 19.2181 22.0944C19.3177 22.194 19.4529 22.25 19.5938 22.25H21.7188C21.8596 22.25 21.9948 22.194 22.0944 22.0944C22.194 21.9948 22.25 21.8596 22.25 21.7188V19.5938C22.25 19.4529 22.194 19.3177 22.0944 19.2181C21.9948 19.1185 21.8596 19.0625 21.7188 19.0625ZM21.1875 21.1875H20.125V20.125H21.1875V21.1875Z" stroke="#00AEFF" stroke-width="0.6" mask="url(#path-1-outside-1)"/>
<path d="M13.2188 23.3125H11.0938C10.9529 23.3125 10.8177 23.3685 10.7181 23.4681C10.6185 23.5677 10.5625 23.7029 10.5625 23.8438V25.9688C10.5625 26.1096 10.6185 26.2448 10.7181 26.3444C10.8177 26.444 10.9529 26.5 11.0938 26.5H13.2188C13.3596 26.5 13.4948 26.444 13.5944 26.3444C13.694 26.2448 13.75 26.1096 13.75 25.9688V23.8438C13.75 23.7029 13.694 23.5677 13.5944 23.4681C13.4948 23.3685 13.3596 23.3125 13.2188 23.3125ZM12.6875 25.4375H11.625V24.375H12.6875V25.4375Z" stroke="#00AEFF" stroke-width="0.6" mask="url(#path-1-outside-1)"/>
<path d="M17.4688 23.3125H15.3438C15.2029 23.3125 15.0677 23.3685 14.9681 23.4681C14.8685 23.5677 14.8125 23.7029 14.8125 23.8438V25.9688C14.8125 26.1096 14.8685 26.2448 14.9681 26.3444C15.0677 26.444 15.2029 26.5 15.3438 26.5H17.4688C17.6096 26.5 17.7448 26.444 17.8444 26.3444C17.944 26.2448 18 26.1096 18 25.9688V23.8438C18 23.7029 17.944 23.5677 17.8444 23.4681C17.7448 23.3685 17.6096 23.3125 17.4688 23.3125ZM16.9375 25.4375H15.875V24.375H16.9375V25.4375Z" stroke="#00AEFF" stroke-width="0.6" mask="url(#path-1-outside-1)"/>
<path d="M21.7188 23.3125H19.5938C19.4529 23.3125 19.3177 23.3685 19.2181 23.4681C19.1185 23.5677 19.0625 23.7029 19.0625 23.8438V25.9688C19.0625 26.1096 19.1185 26.2448 19.2181 26.3444C19.3177 26.444 19.4529 26.5 19.5938 26.5H21.7188C21.8596 26.5 21.9948 26.444 22.0944 26.3444C22.194 26.2448 22.25 26.1096 22.25 25.9688V23.8438C22.25 23.7029 22.194 23.5677 22.0944 23.4681C21.9948 23.3685 21.8596 23.3125 21.7188 23.3125ZM21.1875 25.4375H20.125V24.375H21.1875V25.4375Z" stroke="#00AEFF" stroke-width="0.6" mask="url(#path-1-outside-1)"/>
<path d="M13.2188 27.5625H11.0938C10.9529 27.5625 10.8177 27.6185 10.7181 27.7181C10.6185 27.8177 10.5625 27.9529 10.5625 28.0938V30.2188C10.5625 30.3596 10.6185 30.4948 10.7181 30.5944C10.8177 30.694 10.9529 30.75 11.0938 30.75H13.2188C13.3596 30.75 13.4948 30.694 13.5944 30.5944C13.694 30.4948 13.75 30.3596 13.75 30.2188V28.0938C13.75 27.9529 13.694 27.8177 13.5944 27.7181C13.4948 27.6185 13.3596 27.5625 13.2188 27.5625ZM12.6875 29.6875H11.625V28.625H12.6875V29.6875Z" stroke="#00AEFF" stroke-width="0.6" mask="url(#path-1-outside-1)"/>
<path d="M17.4688 27.5625H15.3438C15.2029 27.5625 15.0677 27.6185 14.9681 27.7181C14.8685 27.8177 14.8125 27.9529 14.8125 28.0938V30.2188C14.8125 30.3596 14.8685 30.4948 14.9681 30.5944C15.0677 30.694 15.2029 30.75 15.3438 30.75H17.4688C17.6096 30.75 17.7448 30.694 17.8444 30.5944C17.944 30.4948 18 30.3596 18 30.2188V28.0938C18 27.9529 17.944 27.8177 17.8444 27.7181C17.7448 27.6185 17.6096 27.5625 17.4688 27.5625ZM16.9375 29.6875H15.875V28.625H16.9375V29.6875Z" stroke="#00AEFF" stroke-width="0.6" mask="url(#path-1-outside-1)"/>
<path d="M21.7188 27.5625H19.5938C19.4529 27.5625 19.3177 27.6185 19.2181 27.7181C19.1185 27.8177 19.0625 27.9529 19.0625 28.0938V30.2188C19.0625 30.3596 19.1185 30.4948 19.2181 30.5944C19.3177 30.694 19.4529 30.75 19.5938 30.75H21.7188C21.8596 30.75 21.9948 30.694 22.0944 30.5944C22.194 30.4948 22.25 30.3596 22.25 30.2188V28.0938C22.25 27.9529 22.194 27.8177 22.0944 27.7181C21.9948 27.6185 21.8596 27.5625 21.7188 27.5625ZM21.1875 29.6875H20.125V28.625H21.1875V29.6875Z" stroke="#00AEFF" stroke-width="0.6" mask="url(#path-1-outside-1)"/>
<path d="M21.7188 14.8125H11.0938C10.9529 14.8125 10.8177 14.8685 10.7181 14.9681C10.6185 15.0677 10.5625 15.2029 10.5625 15.3438V17.4688C10.5625 17.6096 10.6185 17.7448 10.7181 17.8444C10.8177 17.944 10.9529 18 11.0938 18H21.7188C21.8596 18 21.9948 17.944 22.0944 17.8444C22.194 17.7448 22.25 17.6096 22.25 17.4688V15.3438C22.25 15.2029 22.194 15.0677 22.0944 14.9681C21.9948 14.8685 21.8596 14.8125 21.7188 14.8125ZM21.1875 16.9375H11.625V15.875H21.1875V16.9375Z" stroke="#00AEFF" stroke-width="0.6" mask="url(#path-1-outside-1)"/>
<path d="M18 7.90625C17.9983 8.23488 17.8954 8.55501 17.7053 8.82307C17.5152 9.09113 17.2471 9.29411 16.9375 9.40438V10.0312H15.875V9.40438C15.5654 9.29411 15.2973 9.09113 15.1072 8.82307C14.9171 8.55501 14.8142 8.23488 14.8125 7.90625H15.875C15.875 8.01132 15.9062 8.11403 15.9645 8.2014C16.0229 8.28876 16.1059 8.35685 16.2029 8.39706C16.3 8.43727 16.4068 8.44779 16.5099 8.42729C16.6129 8.40679 16.7076 8.3562 16.7819 8.2819C16.8562 8.2076 16.9068 8.11294 16.9273 8.00989C16.9478 7.90684 16.9373 7.80002 16.8971 7.70295C16.8569 7.60588 16.7888 7.52291 16.7014 7.46453C16.614 7.40616 16.5113 7.375 16.4062 7.375C16.0325 7.3721 15.6716 7.23793 15.3868 6.99594C15.1019 6.75396 14.9112 6.41955 14.8479 6.05118C14.7846 5.68281 14.8528 5.30392 15.0405 4.98073C15.2283 4.65754 15.5236 4.41061 15.875 4.28313V3.65625H16.9375V4.28313C17.2471 4.39339 17.5152 4.59637 17.7053 4.86443C17.8954 5.13249 17.9983 5.45262 18 5.78125H16.9375C16.9375 5.67618 16.9063 5.57347 16.848 5.4861C16.7896 5.39874 16.7066 5.33065 16.6096 5.29044C16.5125 5.25023 16.4057 5.23971 16.3026 5.26021C16.1996 5.28071 16.1049 5.3313 16.0306 5.4056C15.9563 5.4799 15.9057 5.57456 15.8852 5.67761C15.8647 5.78066 15.8752 5.88748 15.9154 5.98455C15.9556 6.08162 16.0237 6.16459 16.1111 6.22297C16.1985 6.28134 16.3012 6.3125 16.4062 6.3125C16.8286 6.31376 17.2332 6.48208 17.5318 6.78069C17.8304 7.0793 17.9987 7.48395 18 7.90625Z" stroke="#00AEFF" stroke-width="0.6" mask="url(#path-1-outside-1)"/>
<path d="M1 1H2.0625V2.0625H1V1Z" stroke="#00AEFF" stroke-width="0.6" mask="url(#path-1-outside-1)"/>
<path d="M3.125 1H7.375V2.0625H3.125V1Z" stroke="#00AEFF" stroke-width="0.6" mask="url(#path-1-outside-1)"/>
<path d="M1 4.1875H2.0625V5.25H1V4.1875Z" stroke="#00AEFF" stroke-width="0.6" mask="url(#path-1-outside-1)"/>
<path d="M3.125 4.1875H7.375V5.25H3.125V4.1875Z" stroke="#00AEFF" stroke-width="0.6" mask="url(#path-1-outside-1)"/>
<path d="M1 7.375H2.0625V8.4375H1V7.375Z" stroke="#00AEFF" stroke-width="0.6" mask="url(#path-1-outside-1)"/>
<path d="M3.125 7.375H7.375V8.4375H3.125V7.375Z" stroke="#00AEFF" stroke-width="0.6" mask="url(#path-1-outside-1)"/>
<path d="M31.8125 25.4375H32.875V26.5H31.8125V25.4375Z" stroke="#00AEFF" stroke-width="0.6" mask="url(#path-1-outside-1)"/>
<path d="M26.5 25.4375H30.75V26.5H26.5V25.4375Z" stroke="#00AEFF" stroke-width="0.6" mask="url(#path-1-outside-1)"/>
<path d="M31.8125 28.625H32.875V29.6875H31.8125V28.625Z" stroke="#00AEFF" stroke-width="0.6" mask="url(#path-1-outside-1)"/>
<path d="M26.5 28.625H30.75V29.6875H26.5V28.625Z" stroke="#00AEFF" stroke-width="0.6" mask="url(#path-1-outside-1)"/>
<path d="M31.8125 31.8125H32.875V32.875H31.8125V31.8125Z" stroke="#00AEFF" stroke-width="0.6" mask="url(#path-1-outside-1)"/>
<path d="M26.5 31.8125H30.75V32.875H26.5V31.8125Z" stroke="#00AEFF" stroke-width="0.6" mask="url(#path-1-outside-1)"/>
</svg>
